<svg width="29" height="28" viewBox="0 0 29 28" fill="none" xmlns="http://www.w3.org/2000/svg">
<g clip-path="url(#clip0_27_2)">
<rect width="29" height="28" fill="white"/>
<path d="M7.41266 25.0698C8.75717 25.0698 9.84716 23.7212 9.84716 22.0577C9.84716 20.3941 8.75717 19.0455 7.41266 19.0455C6.06815 19.0455 4.97821 20.3941 4.97821 22.0577C4.97821 23.7212 6.06815 25.0698 7.41266 25.0698Z" stroke="#0AAD0A" stroke-width="1.28276" stroke-miterlimit="10" stroke-linecap="round"/>
<path d="M6.36566 7.37518H21.0921" stroke="#0AAD0A" stroke-width="1.28276" stroke-miterlimit="10" stroke-linecap="round"/>
<path d="M7.65489 11.0193H20.4484" stroke="#0AAD0A" stroke-width="1.28276" stroke-miterlimit="10" stroke-linecap="round"/>
<path d="M6.99078 19.0443H16.5288C17.5735 19.0443 18.504 18.2232 18.8436 17.0001L22.7746 2.8494C23.1143 1.62633 24.0439 0.805237 25.0895 0.805237H27.9491" stroke="#0AAD0A" stroke-width="1.28276" stroke-miterlimit="10" stroke-linecap="round"/>
<path d="M7.41278 22.4925C7.60696 22.4925 7.76438 22.2978 7.76438 22.0576C7.76438 21.8173 7.60696 21.6226 7.41278 21.6226C7.2186 21.6226 7.06119 21.8173 7.06119 22.0576C7.06119 22.2978 7.2186 22.4925 7.41278 22.4925Z" stroke="#0AAD0A" stroke-width="1.06897" stroke-miterlimit="10" stroke-linecap="round"/>
<path d="M16.2628 25.0698C17.6072 25.0698 18.6971 23.7212 18.6971 22.0577C18.6971 20.3941 17.6072 19.0455 16.2628 19.0455C14.9182 19.0455 13.8283 20.3941 13.8283 22.0577C13.8283 23.7212 14.9182 25.0698 16.2628 25.0698Z" stroke="#0AAD0A" stroke-width="1.28276" stroke-miterlimit="10" stroke-linecap="round"/>
<path d="M16.2628 22.4925C16.4569 22.4925 16.6144 22.2978 16.6144 22.0575C16.6144 21.8173 16.4569 21.6225 16.2628 21.6225C16.0687 21.6225 15.9113 21.8173 15.9113 22.0575C15.9113 22.2978 16.0687 22.4925 16.2628 22.4925Z" stroke="#0AAD0A" stroke-width="1.06897" stroke-miterlimit="10" stroke-linecap="round"/>
<path d="M19.3335 15.2361H6.52247C6.09356 15.2361 5.71713 14.8682 5.59932 14.3328L3.42626 4.48413C3.31765 3.99302 3.60205 3.50311 3.99598 3.50311H20.4196" stroke="#0AAD0A" stroke-width="1.28276" stroke-miterlimit="10" stroke-linecap="round"/>
<path d="M0.912506 26.9498C0.912506 26.9498 10.2748 23.0301 22.909 26.9498" stroke="#0AAD0A" stroke-width="1.28276" stroke-miterlimit="10" stroke-linecap="round"/>
</g>
<defs>
<clipPath id="clip0_27_2">
<rect width="29" height="28" fill="white"/>
</clipPath>
</defs>
</svg>
